# Blender v2.82 (sub 7) OBJ File: 'Gems.blend'
# www.blender.org
mtllib Diamond.mtl
o Diamond_Plane.007
v 0.362803 0.004760 -0.383898
v 0.223730 0.229318 -0.237969
v 0.526991 0.004760 0.000000
v 0.362803 0.004760 0.383898
v 0.223730 0.229318 0.237969
v 0.306484 0.219611 0.000000
v 0.000000 0.001459 -0.575478
v 0.000000 0.290649 -0.303805
v -0.362803 0.004760 -0.383898
v -0.223730 0.229318 -0.237969
v 0.000000 0.001459 0.575478
v 0.000000 0.290649 0.303805
v 0.000000 -0.584215 0.000000
v 0.000000 0.290649 0.000000
v -0.526991 0.004760 0.000000
v -0.362803 0.004760 0.383898
v -0.223730 0.229318 0.237969
v -0.306484 0.219611 0.000000
vt 0.000000 0.000000
vt 0.000000 0.000000
vt 0.000000 0.000000
vt 0.000000 0.000000
vt 0.000000 0.000000
vt 0.000000 0.000000
vt 0.000000 0.000000
vt 0.000000 0.000000
vt 0.000000 0.000000
vt 0.000000 0.000000
vt 0.000000 0.000000
vt 0.000000 0.000000
vt 0.000000 0.000000
vt 0.000000 0.000000
vt 0.000000 0.000000
vt 0.000000 0.000000
vt 0.000000 0.000000
vt 0.000000 0.000000
vn 0.3597 0.6452 -0.6740
vn 0.7100 -0.6353 -0.3037
vn 0.3577 -0.6545 -0.6661
vn 0.7002 0.6619 -0.2677
vn 0.2445 0.9694 -0.0200
vn 0.3597 0.6452 0.6740
vn 0.7100 -0.6353 0.3037
vn 0.3577 -0.6545 0.6661
vn 0.7002 0.6619 0.2677
vn 0.2445 0.9694 0.0200
vn -0.3597 0.6452 -0.6740
vn -0.7100 -0.6353 -0.3037
vn -0.3577 -0.6545 -0.6661
vn -0.7002 0.6619 -0.2677
vn -0.2445 0.9694 -0.0200
vn -0.3597 0.6452 0.6740
vn -0.7100 -0.6353 0.3037
vn -0.3577 -0.6545 0.6661
vn -0.7002 0.6619 0.2677
vn -0.2445 0.9694 0.0200
usemtl TransparentLightBlueGem
s off
f 7/1/1 8/2/1 2/3/1 1/4/1
f 3/5/2 13/6/2 1/4/2
f 13/6/3 7/1/3 1/4/3
f 3/5/4 1/4/4 2/3/4 6/7/4
f 2/3/5 8/2/5 14/8/5 6/7/5
f 11/9/6 4/10/6 5/11/6 12/12/6
f 3/5/7 4/10/7 13/6/7
f 13/6/8 4/10/8 11/9/8
f 3/5/9 6/7/9 5/11/9 4/10/9
f 5/11/10 6/7/10 14/8/10 12/12/10
f 7/1/11 9/13/11 10/14/11 8/2/11
f 15/15/12 9/13/12 13/6/12
f 13/6/13 9/13/13 7/1/13
f 15/15/14 18/16/14 10/14/14 9/13/14
f 10/14/15 18/16/15 14/8/15 8/2/15
f 11/9/16 12/12/16 17/17/16 16/18/16
f 15/15/17 13/6/17 16/18/17
f 13/6/18 11/9/18 16/18/18
f 15/15/19 16/18/19 17/17/19 18/16/19
f 17/17/20 12/12/20 14/8/20 18/16/20
