# Blender v2.82 (sub 7) OBJ File: 'Gems.blend'
# www.blender.org
mtllib Emerald.mtl
o Emerald_Plane
v 0.123456 0.243316 -0.169456
v 0.123456 0.183421 -0.238590
v 0.123456 0.243316 0.169456
v 0.123456 0.243316 0.000000
v 0.123456 0.183421 0.238590
v 0.123456 -0.243316 -0.169456
v 0.123456 0.000000 -0.238491
v 0.123456 -0.183421 -0.238590
v 0.123456 -0.243316 0.169456
v 0.123456 -0.243316 0.000000
v 0.123456 0.000000 0.238491
v 0.123456 0.000000 0.000000
v 0.123456 -0.183421 0.238590
v 0.000000 0.420923 -0.296768
v 0.000000 0.318765 -0.421583
v -0.123456 0.243316 -0.169456
v -0.123456 0.183421 -0.238590
v 0.000000 0.420923 0.296768
v 0.000000 0.420923 0.000000
v 0.000000 0.318765 0.421583
v -0.123456 0.243316 0.169456
v -0.123456 0.243316 0.000000
v -0.123456 0.183421 0.238590
v 0.000000 -0.420923 -0.296768
v 0.000000 0.000000 -0.420591
v 0.000000 -0.318765 -0.421583
v -0.123456 -0.243316 -0.169456
v -0.123456 0.000000 -0.238491
v -0.123456 -0.183421 -0.238590
v 0.000000 -0.420923 0.296768
v 0.000000 -0.420923 0.000000
v 0.000000 0.000000 0.420591
v 0.000000 -0.318765 0.421583
v -0.123456 -0.243316 0.169456
v -0.123456 -0.243316 0.000000
v -0.123456 0.000000 0.238491
v -0.123456 0.000000 0.000000
v -0.123456 -0.183421 0.238590
vt 0.000000 0.000000
vt 0.000000 0.000000
vt 0.000000 0.000000
vt 0.000000 0.000000
vt 0.000000 0.000000
vt 0.000000 0.000000
vt 0.000000 0.000000
vt 0.000000 0.000000
vt 0.000000 0.000000
vt 0.000000 0.000000
vt 0.000000 0.000000
vt 0.000000 0.000000
vt 0.000000 0.000000
vt 0.000000 0.000000
vt 0.000000 0.000000
vt 0.000000 0.000000
vt 0.000000 0.000000
vt 0.000000 0.000000
vt 0.000000 0.000000
vt 0.000000 0.000000
vt 0.000000 0.000000
vt 0.000000 0.000000
vt 0.000000 0.000000
vt 0.000000 0.000000
vt 0.000000 0.000000
vt 0.000000 0.000000
vt 0.000000 0.000000
vt 0.000000 0.000000
vt 0.000000 0.000000
vt 0.000000 0.000000
vt 0.000000 0.000000
vt 0.000000 0.000000
vt 0.000000 0.000000
vt 0.000000 0.000000
vt 0.000000 0.000000
vt 0.000000 0.000000
vt 0.000000 0.000000
vt 0.000000 0.000000
vn 1.0000 0.0000 0.0000
vn 0.8717 0.3761 -0.3143
vn 0.8211 0.5708 0.0000
vn 0.8281 -0.0012 -0.5605
vn 0.8717 0.3761 0.3143
vn 0.8281 -0.0012 0.5605
vn 0.8717 -0.3761 -0.3143
vn 0.8211 -0.5708 0.0000
vn 0.8281 0.0012 -0.5605
vn 0.8717 -0.3761 0.3143
vn 0.8281 0.0012 0.5605
vn -1.0000 0.0000 0.0000
vn -0.8717 0.3761 -0.3143
vn -0.8211 0.5708 0.0000
vn -0.8281 -0.0012 -0.5605
vn -0.8717 0.3761 0.3143
vn -0.8281 -0.0012 0.5605
vn -0.8717 -0.3761 -0.3143
vn -0.8211 -0.5708 0.0000
vn -0.8281 0.0012 -0.5605
vn -0.8717 -0.3761 0.3143
vn -0.8281 0.0012 0.5605
usemtl TransparentGreenGem
s off
f 2/1/1 1/2/1 4/3/1 12/4/1 7/5/1
f 15/6/2 14/7/2 1/2/2 2/1/2
f 14/7/3 19/8/3 4/3/3 1/2/3
f 25/9/4 15/6/4 2/1/4 7/5/4
f 5/10/1 11/11/1 12/4/1 4/3/1 3/12/1
f 20/13/5 5/10/5 3/12/5 18/14/5
f 18/14/3 3/12/3 4/3/3 19/8/3
f 32/15/6 11/11/6 5/10/6 20/13/6
f 8/16/1 7/5/1 12/4/1 10/17/1 6/18/1
f 26/19/7 8/16/7 6/18/7 24/20/7
f 24/20/8 6/18/8 10/17/8 31/21/8
f 25/9/9 7/5/9 8/16/9 26/19/9
f 13/22/1 9/23/1 10/17/1 12/4/1 11/11/1
f 33/24/10 30/25/10 9/23/10 13/22/10
f 30/25/8 31/21/8 10/17/8 9/23/8
f 32/15/11 33/24/11 13/22/11 11/11/11
f 17/26/12 28/27/12 37/28/12 22/29/12 16/30/12
f 15/6/13 17/26/13 16/30/13 14/7/13
f 14/7/14 16/30/14 22/29/14 19/8/14
f 25/9/15 28/27/15 17/26/15 15/6/15
f 23/31/12 21/32/12 22/29/12 37/28/12 36/33/12
f 20/13/16 18/14/16 21/32/16 23/31/16
f 18/14/14 19/8/14 22/29/14 21/32/14
f 32/15/17 20/13/17 23/31/17 36/33/17
f 29/34/12 27/35/12 35/36/12 37/28/12 28/27/12
f 26/19/18 24/20/18 27/35/18 29/34/18
f 24/20/19 31/21/19 35/36/19 27/35/19
f 25/9/20 26/19/20 29/34/20 28/27/20
f 38/37/12 36/33/12 37/28/12 35/36/12 34/38/12
f 33/24/21 38/37/21 34/38/21 30/25/21
f 30/25/19 34/38/19 35/36/19 31/21/19
f 32/15/22 36/33/22 38/37/22 33/24/22
